<mxfile host="app.diagrams.net" modified="2021-10-19T08:18:00.236Z" agent="5.0 (Windows)" etag="NT3hJG7Fu0Q03vhICmG4" version="15.5.5" type="github">
  <diagram id="a3rFMuSCF0kdhrKD-A-Z" name="Page-1">
    <mxGraphModel dx="1026" dy="692" grid="1" gridSize="10" guides="1" tooltips="1" connect="1" arrows="1" fold="1" page="1" pageScale="1" pageWidth="827" pageHeight="1169" math="0" shadow="0">
      <root>
        <mxCell id="0" />
        <mxCell id="1" parent="0" />
        <mxCell id="BhVjoURGV-7zEwOCmsBP-4" value="" style="html=1;outlineConnect=0;whiteSpace=wrap;fillColor=#dae8fc;shape=mxgraph.archimate3.application;appType=node;archiType=square;strokeColor=#6c8ebf;" vertex="1" parent="1">
          <mxGeometry x="90" y="220" width="180" height="75" as="geometry" />
        </mxCell>
        <mxCell id="BhVjoURGV-7zEwOCmsBP-5" value="" style="html=1;outlineConnect=0;whiteSpace=wrap;fillColor=#dae8fc;shape=mxgraph.archimate3.application;appType=node;archiType=square;strokeColor=#6c8ebf;" vertex="1" parent="1">
          <mxGeometry x="500" y="220" width="180" height="75" as="geometry" />
        </mxCell>
        <mxCell id="BhVjoURGV-7zEwOCmsBP-6" value="" style="html=1;outlineConnect=0;whiteSpace=wrap;fillColor=#dae8fc;shape=mxgraph.archimate3.application;appType=node;archiType=square;strokeColor=#6c8ebf;" vertex="1" parent="1">
          <mxGeometry x="300" y="220" width="180" height="75" as="geometry" />
        </mxCell>
        <mxCell id="BhVjoURGV-7zEwOCmsBP-24" style="edgeStyle=orthogonalEdgeStyle;rounded=0;orthogonalLoop=1;jettySize=auto;html=1;exitX=0;exitY=0.75;exitDx=0;exitDy=0;entryX=0.5;entryY=0;entryDx=0;entryDy=0;entryPerimeter=0;shape=link;" edge="1" parent="1" source="BhVjoURGV-7zEwOCmsBP-7" target="BhVjoURGV-7zEwOCmsBP-4">
          <mxGeometry relative="1" as="geometry" />
        </mxCell>
        <mxCell id="BhVjoURGV-7zEwOCmsBP-26" style="edgeStyle=orthogonalEdgeStyle;rounded=0;orthogonalLoop=1;jettySize=auto;html=1;exitX=0.5;exitY=1;exitDx=0;exitDy=0;entryX=0.467;entryY=-0.027;entryDx=0;entryDy=0;entryPerimeter=0;shape=link;" edge="1" parent="1" source="BhVjoURGV-7zEwOCmsBP-7" target="BhVjoURGV-7zEwOCmsBP-6">
          <mxGeometry relative="1" as="geometry" />
        </mxCell>
        <mxCell id="BhVjoURGV-7zEwOCmsBP-27" style="edgeStyle=orthogonalEdgeStyle;rounded=0;orthogonalLoop=1;jettySize=auto;html=1;exitX=1;exitY=0.75;exitDx=0;exitDy=0;entryX=0.5;entryY=0;entryDx=0;entryDy=0;entryPerimeter=0;shape=link;" edge="1" parent="1" source="BhVjoURGV-7zEwOCmsBP-7" target="BhVjoURGV-7zEwOCmsBP-5">
          <mxGeometry relative="1" as="geometry" />
        </mxCell>
        <mxCell id="BhVjoURGV-7zEwOCmsBP-7" value="tlkongdb01.domain.se(PostgresQL)" style="aspect=fixed;perimeter=ellipsePerimeter;html=1;align=center;shadow=0;dashed=0;spacingTop=3;image;image=img/lib/active_directory/database.svg;" vertex="1" parent="1">
          <mxGeometry x="337.7" y="30" width="94.59" height="70" as="geometry" />
        </mxCell>
        <mxCell id="BhVjoURGV-7zEwOCmsBP-16" value="tlapikong01.domain.se" style="text;html=1;strokeColor=none;fillColor=none;align=center;verticalAlign=middle;whiteSpace=wrap;rounded=0;" vertex="1" parent="1">
          <mxGeometry x="323" y="263" width="150" height="30" as="geometry" />
        </mxCell>
        <mxCell id="BhVjoURGV-7zEwOCmsBP-18" value="tlapikong02.domain.se" style="text;html=1;strokeColor=none;fillColor=none;align=center;verticalAlign=middle;whiteSpace=wrap;rounded=0;" vertex="1" parent="1">
          <mxGeometry x="526" y="263" width="140" height="30" as="geometry" />
        </mxCell>
        <mxCell id="BhVjoURGV-7zEwOCmsBP-19" value="tlapikong03.domain.se" style="text;html=1;strokeColor=none;fillColor=none;align=center;verticalAlign=middle;whiteSpace=wrap;rounded=0;" vertex="1" parent="1">
          <mxGeometry x="100" y="260" width="150" height="30" as="geometry" />
        </mxCell>
        <mxCell id="BhVjoURGV-7zEwOCmsBP-20" value="" style="shape=image;html=1;verticalAlign=top;verticalLabelPosition=bottom;labelBackgroundColor=#ffffff;imageAspect=0;aspect=fixed;image=https://cdn2.iconfinder.com/data/icons/metro-uinvert-dock/128/Gateway.png" vertex="1" parent="1">
          <mxGeometry x="305" y="216" width="60" height="60" as="geometry" />
        </mxCell>
        <mxCell id="BhVjoURGV-7zEwOCmsBP-21" value="" style="shape=image;html=1;verticalAlign=top;verticalLabelPosition=bottom;labelBackgroundColor=#ffffff;imageAspect=0;aspect=fixed;image=https://cdn2.iconfinder.com/data/icons/metro-uinvert-dock/128/Gateway.png" vertex="1" parent="1">
          <mxGeometry x="505" y="216" width="60" height="60" as="geometry" />
        </mxCell>
        <mxCell id="BhVjoURGV-7zEwOCmsBP-23" value="Kong Admin Gui" style="rounded=0;whiteSpace=wrap;html=1;fillColor=#f5f5f5;strokeColor=#666666;" vertex="1" parent="1">
          <mxGeometry x="100" y="230" width="110" height="30" as="geometry" />
        </mxCell>
      </root>
    </mxGraphModel>
  </diagram>
</mxfile>
